<svg width="15" height="8" viewBox="0 0 15 8" fill="none" xmlns="http://www.w3.org/2000/svg">
<path d="M14.5416 6.51411C14.542 6.74776 14.4606 6.9742 14.3116 7.15411C14.2276 7.25537 14.1245 7.33907 14.0082 7.40042C13.8918 7.46177 13.7645 7.49957 13.6335 7.51165C13.5026 7.52372 13.3705 7.50984 13.2449 7.47079C13.1193 7.43175 13.0026 7.36831 12.9016 7.28411L7.54157 2.80411L2.17157 7.12411C2.06928 7.20717 1.95158 7.26921 1.82524 7.30664C1.6989 7.34407 1.56641 7.35616 1.43538 7.34222C1.30436 7.32829 1.17737 7.28859 1.06174 7.22541C0.946101 7.16224 0.844089 7.07684 0.761566 6.97411C0.67053 6.87064 0.601862 6.74948 0.559873 6.61822C0.517884 6.48695 0.503481 6.34843 0.517565 6.21133C0.53165 6.07424 0.57392 5.94154 0.641722 5.82156C0.709524 5.70158 0.801394 5.5969 0.911566 5.51411L6.91157 0.684109C7.0905 0.537027 7.31494 0.456621 7.54657 0.456621C7.77819 0.456621 8.00263 0.537027 8.18157 0.684109L14.1816 5.68411C14.3026 5.78443 14.3982 5.91186 14.4608 6.05607C14.5233 6.20028 14.551 6.3572 14.5416 6.51411Z" fill="white"/>
</svg>
